# xmcd
#
# Track frame offsets:
#	150
#	14627
#	26335
#	39476
#	51830
#	67084
#	86651
#	101798
#	116713
#	127922
#	138928
#	151226
#	163395
#
# Disc length: 2353 seconds
#
# Revision: 0
# Processed by: cddbd v1.5.2PL0 Copyright (c) Steve Scherf et al.
# Submitted via: EasyCDDAExtractor 16.0.6.1
#
DISCID=b1092f0d
DTITLE=The Presidents - 5-10-15-20-25-30 Years Of Love - Their Greatest Hits
DYEAR=1900
DGENRE=
TTITLE0=5-10-15-20-25-30 (Years of Love)
TTITLE1=Sweet Magic
TTITLE2=For You
TTITLE3=Fiddle De De
TTITLE4=Why You So Good To Me
TTITLE5=This Is My Dream World
TTITLE6=Triangle Of Love (Hey Diddle Diddle)
TTITLE7=Girl You Cheated On Me
TTITLE8=How Can You Say You're Leavin'
TTITLE9=It's All Over
TTITLE10=I'm Still Dancing
TTITLE11=Gotta Keep Movin'
TTITLE12=The Sweetest Thing This Side Of Heaven
EXTD=
EXTT0=
EXTT1=
EXTT2=
EXTT3=
EXTT4=
EXTT5=
EXTT6=
EXTT7=
EXTT8=
EXTT9=
EXTT10=
EXTT11=
EXTT12=
PLAYORDER=
